<?xml version="1.0" encoding="UTF-8"?>
<!DOCTYPE svg PUBLIC "-//W3C//DTD SVG 1.1//EN" "http://www.w3.org/Graphics/SVG/1.1/DTD/svg11.dtd">
<!-- Creator: CorelDRAW -->
<svg xmlns="http://www.w3.org/2000/svg" xml:space="preserve" width="56.2977mm" height="95.836mm" version="1.1" style="shape-rendering:geometricPrecision; text-rendering:geometricPrecision; image-rendering:optimizeQuality; fill-rule:evenodd; clip-rule:evenodd"
viewBox="0 0 5572.53 9486.15"
 xmlns:xlink="http://www.w3.org/1999/xlink"
 xmlns:xodm="http://www.corel.com/coreldraw/odm/2003">
 <defs>
  <style type="text/css">
   <![CDATA[
    .fil0 {fill:#121F38;fill-rule:nonzero}
   ]]>
  </style>
 </defs>
 <g id="Layer_x0020_1">
  <metadata id="CorelCorpID_0Corel-Layer"/>
  <g id="_2031687699664">
   <path class="fil0" d="M2203.7 9347.16c-976.33,-254.87 -1128.9,-311.85 -1295.51,-484.41 -163.82,-169.94 -199.9,-297.73 -212.9,-755.46 -14.4,-505.2 -41.35,-589.64 -335.89,-1055.61 -328.25,-519.31 -361.31,-610.53 -359.29,-993.58 2.64,-507.27 -84.83,-306.7 1704.3,-3908.06 587.33,-1182.51 1074.15,-2150.04 1081.88,-2150.04 7.62,0 494.45,967.53 1081.94,2150.04 1788.94,3601.42 1701.48,3400.79 1704.22,3908.06 2.03,383.05 -30.97,474.2 -359.41,993.58 -294.59,465.97 -321.5,550.41 -335.78,1055.61 -9.64,335.09 -22.01,433.71 -68.02,537.02 -112,251.67 -295.94,381.53 -719.32,507.27 -183.82,54.63 -1038.41,278.5 -1275.97,334.25 -22.84,5.38 -297.49,-56.97 -610.24,-138.66zm693.44 -11.88c49.92,-15.8 18.6,-22.01 -110.88,-22.01 -129.59,0 -160.8,6.21 -110.94,22.01 38.16,12.15 88.08,22.01 110.94,22.01 22.84,0 72.83,-9.86 110.88,-22.01zm-589.35 -158.4c8.47,-25.31 -35.02,-33.61 -164.21,-31.71l-175.75 2.8 124.93 36.14c145.62,42.24 198.96,40.45 215.03,-7.18l0 -0.05zm832.24 13.79c-8.47,-25.05 -104.66,-34.35 -353.77,-34.35 -249.04,0 -345.35,9.35 -353.69,34.35 -8.85,26.44 73.84,34.51 353.69,34.51 279.92,0 362.56,-8.07 353.77,-34.51zm325.89 -4.93l138.66 -38.33 -173.29 -2.51c-159.89,-2.3 -202.43,14.68 -154.97,61.79 24.26,24.04 27.79,23.65 189.66,-21.06l0 0.11 -0.06 0.01zm-1946.03 -279.41l78.99 -94.29 -127.57 0c-70.14,0 -127.57,12.37 -127.57,27.45 0,15.19 18.72,27.51 41.58,27.51 54.73,0 53.51,44.77 -1.74,65.77 -47.67,18.21 -28.57,73.17 24.26,70.03 18.05,-1.01 68.52,-44.48 112,-96.47l0.05 0zm830.93 77.76c6.44,-11.38 19.88,-54.74 29.97,-96.37l18.21 -75.76 -317.95 0c-182.04,0 -325.18,11.76 -334.99,27.46 -10.87,17.42 59.78,27.5 192.51,27.5 167.86,0 209.71,8.24 209.71,41.35 0,33.61 -46.11,41.35 -248.03,41.35 -136.37,0 -255.7,12.39 -265.24,27.58 -11.14,17.82 110.09,27.5 343.51,27.5 198.32,0 365.86,-9.35 372.29,-20.73l0.01 0.12zm726.78 -6.83c-9.65,-15.46 -138.45,-27.56 -291.3,-27.56 -152.83,0 -281.75,12.15 -291.28,27.56 -11.09,17.65 92.66,27.51 291.28,27.51 198.51,0 302.28,-9.86 291.3,-27.51zm859.9 0c-9.35,-15.19 -128.7,-27.56 -265.11,-27.56 -202.04,0 -248.03,-7.67 -248.03,-41.35 0,-33 41.74,-41.35 209.59,-41.35 132.74,0 203.39,-9.98 192.68,-27.4 -9.86,-15.8 -153.12,-27.56 -335.15,-27.56l-317.95 0 18.38 75.74c9.98,41.58 23.48,84.94 29.8,96.37 6.45,11.38 173.97,20.73 372.3,20.73 233.34,0 354.59,-9.75 343.5,-27.5l0 -0.12zm277.61 0c9.47,-15.29 -2.29,-35.13 -26.16,-44.26 -55.24,-21.13 -56.36,-65.72 -1.79,-65.72 22.86,0 41.63,-12.39 41.63,-27.56 0,-15.19 -57.43,-27.58 -127.57,-27.58l-127.52 0 79 94.47c81.3,97.09 132.11,119.22 162.48,70.7l-0.07 -0.05zm-2905.51 -638.33c87.63,-181.91 161.58,-272.06 324.8,-395.71l97.72 -73.96 0 -313.36c0,-249.94 -7.84,-313.53 -38.67,-313.53 -21.35,0 -77.49,-43.7 -124.93,-97.38 -65.88,-74.46 -86.06,-123.38 -86.06,-208.59 0,-261.59 336.79,-370.9 441.23,-143.37 52.84,115.31 -48.4,174.87 -108.36,63.7 -43.87,-81.41 -159.79,-71.95 -200.35,16.41 -41.18,89.87 15.52,205.17 119.23,241.36 60.67,21.06 112.88,-6.34 408.43,-214.69 306.3,-215.93 337.16,-245.39 321.7,-306.47 -27.68,-109.71 13.78,-254.58 101.53,-353.69l81.91 -92.67 -76.76 -11.09c-168.75,-24.66 -288.87,54.45 -241.98,159.5 21.4,47.79 24.03,46.96 34.29,-11.59 14.4,-82.3 76.19,-62.47 76.19,24.54 0,52.44 -16.52,68.35 -77.98,75.36 -65.05,7.44 -83.15,-4.93 -110.09,-75.76 -17.7,-46.5 -40.96,-84.55 -51.83,-84.55 -42.58,0 -134.63,149.32 -134.63,218.56 0,128.53 126.67,197.1 143.76,77.76 13,-90.15 99.73,-96.37 121.97,-8.63 20.23,80 -22.23,146.18 -116.81,181.81 -33.79,12.77 -65.5,51.83 -70.43,86.72 -6.45,44.99 -30.26,65.83 -81.81,71.82 -72.66,8.35 -125.78,-53.33 -92.16,-107.29 25.16,-40.32 62.81,-28.85 75.36,23.09 10.87,45.55 12.79,45.55 32.51,1.17 14.68,-33.61 -2.64,-70.93 -58.66,-126.56 -65.1,-64.6 -90.31,-74.07 -139.62,-52.21 -135.63,60.06 -270.04,-53.35 -190.71,-160.91 42.29,-57.54 137.04,-41.52 150.04,25.27 7.73,40.16 -2.13,46.77 -48.29,32.22 -32.61,-10.26 -58.05,-6.11 -58.05,9.47 0,100.01 177,25.65 201.02,-84.33 7.57,-35.02 22.75,-84.53 33.61,-110.2 15.3,-36.03 -39.22,-21.74 -239.18,62.97 -357.73,151.45 -384.9,166.64 -446.37,248.94 -59.61,79.66 -47.78,172.95 25.56,200.85 57.64,21.86 132.82,-37.82 94.9,-75.46 -18.6,-18.39 -40.57,-17.09 -66.22,4.03 -21.06,17.32 -46.18,23.87 -55.59,14.5 -29.8,-29.69 35.92,-120.13 87.13,-120.13 110.2,0 153.07,133.35 71.82,222.77 -34.91,38.21 -37.44,60.06 -12.39,106.46 65.1,120.85 -52.44,254.2 -169.43,192.05 -47.23,-25.04 -41.35,-9.46 28.96,77.49 48.58,59.94 97.83,144.89 109.76,188.87 17.54,65.1 36.53,79.9 102.76,79.9 67.39,0 81.18,-11.38 81.18,-66.62 0,-36.53 -15.52,-71.71 -34.62,-77.98 -19.11,-6.34 -34.63,8.07 -34.63,32.09 0,47.41 -42.75,59.05 -67.9,18.6 -32.49,-52.21 19.83,-112.62 97.6,-112.62 92.26,0 149.93,81.63 125.55,178.12 -16.81,66.39 -159.17,142.71 -209.09,112 -16.2,-9.86 -29.47,-2.53 -29.47,16.31 0,18.71 -26.55,88.74 -59.05,155.36 -56.37,115.52 -56.76,123.26 -10.26,167.01 45.89,43.09 47.91,42.19 34.01,-16.07 -19.33,-80.29 33.23,-112.11 80,-48.52 25.78,34.73 28.3,64.2 8.74,100.46 -36.64,68.19 -154.75,65.88 -198.62,-3.65 -48.01,-76.37 -87.62,-69.13 -172.78,31.39 -76.76,90.37 -87.63,215.81 -20.62,237.61 25.65,8.34 30.97,-7.68 18.71,-56.15 -22.14,-87.63 64.71,-130.21 118.05,-57.65 49.54,67.23 43.98,139.06 -15.19,197.72 -35.41,35.13 -47,78.89 -39.22,146.18 13.51,115.13 -38.93,169.76 -150.81,156.88 -102.42,-11.78 -154.46,-137.89 -85.33,-206.58 37.59,-37.31 53.22,-39.17 88.4,-10.25 51.94,42.75 30.81,88.13 -30.09,64.87 -37.26,-14.17 -39.04,-7.73 -11.99,42.59 37.82,70.03 66.01,74.34 113.9,17.08 43.36,-51.83 -4.82,-178.12 -67.9,-178.12 -55.91,0 -127.06,-107.68 -126.9,-192.05 0,-38.27 25.38,-110.89 56.36,-161.31l56.42 -91.78 -67.29 -52.33c-90.6,-70.94 -113.12,-175.09 -60.57,-279.92 49.81,-99.11 54.92,-175.81 13.17,-201.47 -45.78,-28.07 -65.61,8.85 -28.58,53.06 46.18,55.24 -5.7,78.48 -69.52,31.37 -42.08,-30.99 -46.51,-48.8 -21.86,-88.64 45.49,-73.73 154.97,-63.08 196.33,19.11 18.99,37.92 58.77,70.14 88.47,71.77 154.75,8.74 187.75,95.97 45.6,121.01 -42.86,7.57 -91.72,36.3 -108.59,63.7 -25.05,40.56 -18.6,59.78 34.73,103.32 81.69,66.51 90.65,66.39 180.41,-3.81 55.64,-43.36 73.05,-81.69 73.05,-159.68 0,-100.34 -23.64,-145.22 -233.63,-442.72 -111.39,-157.77 -130.42,-371.3 -45.99,-513.38 32.99,-55.51 56.36,-103.14 51.93,-105.78 -4.42,-2.63 -61.18,-27.84 -126.18,-55.91 -64.87,-27.9 -131.94,-67.63 -149.08,-88.02 -93.51,-112 -273.8,28.19 -273.8,213.01 0,111.66 80.56,200.41 155.76,171.84 61.02,-23.32 47.28,-118.96 -17.08,-118.96 -37.66,0 -55.48,-18.31 -55.48,-57.14 0,-48.29 14.79,-56.02 94.08,-49.19 51.7,4.42 113.28,-7.84 136.87,-27.34 32.38,-26.67 57.03,-27.9 100.23,-5.04 67.51,35.92 73.66,90.77 15.51,138.66 -34.73,28.58 -41.57,24.66 -41.57,-24.15 0,-32.22 -12.49,-58.55 -27.68,-58.55 -15.29,0 -27.84,48.69 -27.84,108.25 0,60.23 -18.72,126.79 -42.19,150.22 -37.93,37.54 -36.81,44.87 10.08,69.74 80.51,42.86 129.71,183.32 92.44,264.45 -36.41,79.5 -143.26,112.61 -224.17,69.64 -78.38,-41.58 -80.29,-183.44 -2.8,-207.87 66.73,-20.95 111.1,2.4 111.1,58.55 0,29.69 -16.58,36.25 -58.65,23.02 -42.59,-13.38 -55.35,-8.23 -46.28,18.84 6.83,20.5 42.75,37.31 79.5,37.31 106.46,0 107.74,-128.8 1.89,-203.55 -45.15,-31.98 -109.08,-58.15 -142.07,-58.15 -150.04,0 -262.71,-153.34 -245.41,-333.97 6.51,-67.4 -1.41,-106.57 -21.35,-106.57 -67.63,0 -177.88,-115.13 -177.88,-185.74 0,-83.52 71.44,-172.28 138.66,-172.28 72.56,0 146.63,96.81 125.28,163.71 -21.62,67.9 -69.75,48.9 -69.75,-27.68 0,-65.4 -97.38,-73.46 -121.76,-10.15 -28.68,74.24 33,149.42 122.77,149.42 45.15,0 82.19,-11.38 82.19,-25.27 0,-13.89 43.14,-51.7 95.87,-84.1 85.2,-52.33 92.89,-66.44 69.41,-128.07 -14.5,-37.93 -26.55,-123.38 -26.55,-189.59 0,-91.49 -14.07,-130.43 -58.65,-161.41 -107.29,-74.57 -195.03,29.69 -89.36,106.46 53.84,39.04 32.38,124.05 -31.32,124.05 -113.79,0 -202.54,-215.65 -121.74,-295.83 23.87,-23.75 23.24,-51.94 -2.3,-113.29 -47.51,-113.73 1.12,-203.43 103.93,-191.5 79.52,9.14 115.93,88.75 64.21,140.07 -20.73,20.62 -37.03,9.65 -55.24,-37.42 -22.47,-58.15 -28.3,-60.39 -45.39,-18.33 -34.22,84.05 5.44,130.71 111.27,130.71 65.83,0 119.45,20.73 160.29,61.97l61.46 62.07 100.63 -53.84c82.02,-43.97 99.83,-68.63 97.08,-134.01 -4.82,-111.77 71.05,-157.66 147.42,-89.03 31.42,28.17 57.09,77.37 57.09,109.36 0,33.79 26.16,69.42 62.46,85.22 34.29,14.91 62.47,45.78 62.47,68.52 0,33 -32.16,39.45 -159.28,32 -146.01,-8.34 -166.24,-2.29 -242.7,73.74 -87.01,86.23 -111.56,221.7 -55.75,307.31 22.46,34.52 26.95,32.49 27.34,-11.99 0.5,-72.54 107.96,-180.79 179.4,-180.79 110.75,0 181.64,76.19 181.64,195.31 0,115.52 58.55,170.66 118.32,111.39 23.53,-23.26 15.3,-31.21 -31.82,-31.21 -38.32,0 -58.77,-13.67 -51.83,-34.4 6.5,-19 41.74,-34.51 78.67,-34.51 85.83,0 110.88,116.65 36.64,170.66 -68.02,49.3 -111.39,45.15 -169.65,-16.58 -27.29,-28.8 -79.9,-56.76 -116.81,-61.96 -95.2,-13.51 -108.7,-78.38 -16.42,-78.38 60.46,0 72.06,-10.98 64.73,-61.97 -12.5,-87.73 -145.56,-101.63 -189.66,-19.83 -47.41,88.13 11.76,205.46 132.39,262.31 139.34,65.67 337.57,39.12 636.14,-85.04 134.52,-56.02 319.47,-133.12 410.96,-171.56 98.6,-41.23 243.1,-75.13 354.48,-83.2 185.16,-13.27 187.35,-14.28 138.78,-67.73 -133.12,-146.12 -285.34,-190.67 -285.34,-83.32 0,32.73 8.45,34.73 39.22,9.47 46.66,-38.43 85.72,5.04 61.35,68.14 -25.21,65.1 -126.18,47.01 -160.97,-28.86 -25.77,-55.97 -23.02,-78.1 15.19,-119.84 44.48,-48.9 40.96,-53.33 -79.79,-99.11 -69.52,-26.44 -145,-40.83 -167.8,-32.22 -57.48,21.96 -82.02,98.61 -48.4,151.56 31.39,49.3 81.97,36.51 69.42,-17.43 -4.42,-18.94 10.2,-34.51 32.51,-34.51 22.35,0 46.1,15.51 52.94,34.51 21.4,59.16 -34.62,130.71 -102.41,130.71 -96.98,0 -136.93,-65.5 -119.34,-195.42 14.79,-110.09 13.67,-111.88 -58.82,-94.9 -204.38,47.91 -423.11,293.41 -362.22,406.43 39.84,73.73 104.78,91.54 154.36,42.45 32.38,-32.22 35.23,-54.73 12.21,-97.32 -23.26,-43.09 -20.12,-63.48 14.34,-91.78 37.42,-30.86 51.21,-28.06 89.59,17.83 28.57,34.11 71.95,51.04 117.1,45.88 126.67,-14.68 182.03,133.51 66.44,177.51 -59.67,22.75 -83.7,-8.07 -43.7,-55.97 20.95,-25.05 23.02,-45.67 5.71,-56.42 -28.25,-17.21 -44.99,-2.13 -144.17,129.08 -77.59,102.76 -246.24,106.68 -345.62,8.07 -37.42,-37.2 -68.19,-86.72 -68.19,-110.25 0,-23.87 -23.77,-42.47 -54.47,-42.47 -80.18,0 -123.43,-94.79 -68.3,-149.53 55.01,-54.63 95.08,-55.35 95.08,-1.9 0,22.75 -13.27,41.35 -29.47,41.35 -16.07,0 -21.62,12.39 -12.15,27.51 29.69,47.78 67.61,29.97 85.44,-40.34 9.35,-37.42 72.05,-118.16 139.16,-179.67 67.13,-61.41 122.09,-116.03 122.09,-121.36 0,-5.33 -59.28,-17.42 -131.84,-26.95 -153.95,-20.34 -427.14,-142.71 -551.81,-247.14 -48.01,-40.16 -112.61,-73.05 -143.71,-73.05 -134.52,0 -196.21,197.1 -67.23,215.3 47.4,6.67 62.46,-4.92 62.46,-48.18 0,-64.89 49.41,-76.98 72.28,-17.82 24.03,62.09 -40.56,153.62 -108.07,153.07 -83.42,-1.01 -122.25,-28.96 -154.47,-112.89 -35.02,-91.49 12.5,-190.6 114.91,-239.29 63.38,-30.09 72.73,-48.07 57.77,-110.14 -25.31,-104.78 -34.29,-115.53 -97.08,-115.53 -38.33,0 -53.01,15.19 -46.56,48.19 5.03,26.55 26.78,48.29 48.12,48.29 21.53,0 44.48,16.41 51.21,36.53 22.01,65.39 -137.65,25.66 -162.02,-40.34 -29.26,-79.1 41.06,-175.2 128.29,-175.2 45.78,0 68.02,-15.62 68.41,-48.29 0.27,-26.39 22.07,-74.62 48.53,-106.84 110.59,-135.64 278.34,-156.99 419.8,-53.35 50.21,36.81 108.86,60.17 130.21,52.05 44.64,-17.04 52.21,-107.58 11.14,-132.84 -15.3,-9.35 -27.85,9.47 -27.85,41.97 0,35.02 -14.12,54.34 -34.62,47.51 -45.49,-14.9 -61.46,-101.34 -25.37,-137.14 42.74,-42.47 164.94,-1.01 185.32,62.81 20.73,64.99 -51.32,191.44 -108.96,191.44 -20.85,0 -46.51,34.12 -57.04,75.69 -24.49,97.59 -92.77,172.23 -157.76,172.23 -62.6,0 -68.75,-88.85 -9.59,-137.82 72.89,-60.07 43.47,-144.23 -61.96,-177 -45.78,-14.18 -80.18,-1.12 -131.78,50.21 -79.23,78.66 -92.66,141.46 -24.65,115.52 24.76,-9.47 62.19,-3.14 83.19,14.17 48.58,39.95 51.43,171.57 3.41,154.97 -19.1,-6.67 -30.7,-33.73 -25.77,-60.34 5.44,-30.09 -5.04,-43.7 -27.79,-36.14 -79.5,26.17 -52.84,111 72.44,230.12 70.27,66.84 139.17,121.57 153.24,121.57 13.89,0 24.26,-36.75 23.02,-81.63 -2.9,-100.12 48.29,-166.11 128.64,-166.11 114.8,0 170.32,122.86 86.62,191.67 -59.28,48.9 -104.66,10.47 -64.09,-53.96 41.23,-65.5 9.64,-102.53 -47.41,-55.65 -77.65,63.99 -37.2,177.89 86.56,243.28 32.77,17.32 132.39,39.95 221.37,50.42l161.92 18.82 -116.03 -130.71c-148.7,-167.8 -185.13,-279.79 -165.62,-508.84 17.82,-209.49 -18.21,-361.04 -108.97,-458.24 -70.83,-75.86 -204.67,-93.17 -204.67,-26.55 0,23.14 24.66,41.23 56.25,41.23 69.14,0 104.95,78.72 51.72,113.79 -21.29,14.01 -75.13,20.85 -119.73,15.03 -44.48,-5.66 -112.89,5.94 -151.83,26.04 -58.89,30.36 -80.29,30.26 -127.06,-1.01 -68.75,-45.27 -85.95,-115.92 -41.18,-169.43 51.54,-61.69 137.65,-50.32 137.65,17.98 0,40.34 -12.77,53.23 -41.73,42.25 -25.32,-9.75 -41.64,0 -41.64,24.6 0,22.12 16.31,40.34 36.04,40.34 58.49,0 102.63,-60.68 102.63,-141.25 0,-46 25.27,-94.8 65.45,-126.18 51.49,-40.16 62.58,-70.03 52.33,-139.95 -15.51,-104.55 30.36,-170.95 118.11,-170.95 81.12,0 134.13,65 111.39,136.31 -22.01,68.75 -99.51,75.76 -90.26,8.35 3.64,-26.57 -5.94,-51.72 -21.13,-55.99 -15.29,-4.31 -31.6,22.76 -36.41,59.89 -7.22,56.87 11.37,76.48 115.64,122.25 106.17,46.61 135.64,78.61 202.14,218.95 76.59,162.09 78.66,163.71 143.08,121.92 110.49,-71.93 287.09,-54.01 442.05,44.77 75.2,47.92 162.93,87.23 194.92,87.23 114.91,0 191.16,-148.14 110.38,-214.79 -69.53,-57.27 -114.3,-48.8 -116.03,22.01 -1.23,49.91 -17.08,68.75 -57.26,68.75 -46.18,0 -55.53,-18.33 -55.53,-109.48 0,-94.58 10.36,-113 76.37,-136.14 113.9,-39.66 220.18,8.23 277.95,125.27 38.83,78.77 43.09,115.81 20.12,175.88 -22.41,58.38 -20.22,86.5 9.59,120.46 86.21,98.71 64.99,223.37 -38.16,223.37 -67.53,0 -69.53,-24.25 -5.94,-71.1 44.1,-32.43 44.64,-39.66 4.82,-79.9 -35.41,-35.69 -59.06,-38.32 -122.77,-14.28 -43.47,16.41 -112.67,22.52 -153.62,13.51 -66.22,-14.4 -76.65,-6.67 -91.78,68.4 -22.52,111.61 -140.12,227.3 -219.62,215.88 -91.67,-12.89 -88.08,-84.93 6.83,-138.15 65.88,-37.04 83.7,-65.72 83.7,-135.54 0,-99.72 -67,-189.37 -141.46,-189.37 -44.99,0 -45.89,6.83 -10.26,75.08 32.84,62.86 33.23,83.92 2.03,130.71 -46.79,70.43 -135.76,85.11 -181.93,29.97 -43.6,-52.21 -18.82,-125.67 42.35,-125.67 28.91,0 39.66,15.01 29.47,41.35 -9.75,25.15 0,41.35 24.81,41.35 53.35,0 52.34,-66.39 -1.62,-110.88 -72.33,-59.56 -171.84,7.44 -207.7,139.95 -36.03,132.79 -26.17,152.22 54.63,109.37 90.77,-48.29 172.68,-10.2 162.48,75.18 -4.71,39.22 -25.38,76.76 -46.16,83.6 -27.58,8.84 -32.39,-4.16 -18.1,-48.64 15.8,-49.3 9.76,-59.05 -31.88,-51.21 -68.73,13 -81.01,138.45 -22.07,227.53 41.47,62.81 352.98,291.17 397.19,291.17 9.64,0 16.57,-55.14 15.45,-122.37 -2.29,-126.79 -46.16,-208.08 -112.16,-208.08 -45.6,0 -50.72,44.1 -8.07,70.27 20.95,12.89 21.35,27.34 1.12,47.28 -41.25,40.96 -119.34,-29.59 -108.97,-98.5 11.98,-78.49 110.2,-105.67 205.39,-56.65 60.95,31.42 81.81,32.99 90.65,6.67 18.44,-55.14 146.52,-161.92 214.32,-178.9 88.13,-21.85 211.89,44.48 257.05,138.05 33.1,68.63 32.38,91.55 -6.34,171.84 -24.38,50.92 -56.25,92.66 -70.65,92.66 -14.45,0 -45.78,19.5 -69.82,43.25 -32.83,32.61 -36.41,56.26 -14.79,96.32 29.69,55.24 109.87,73.95 109.87,25.65 0,-15.13 -12.37,-27.56 -27.68,-27.56 -15.29,0 -27.77,-18.6 -27.77,-41.35 0,-49.57 59.16,-54.23 105.45,-8.23 51.43,51.04 39.78,99.11 -36.03,148.52 -64.26,41.73 -74.46,41.73 -138.73,0 -44.27,-28.68 -69.36,-70.76 -69.36,-115.82 0,-39.22 -26.67,-92.16 -59.94,-118.83 -78.27,-62.91 -44.88,-112.11 76.37,-112.11 107.56,0 150.15,-57.53 93.17,-125.67 -125.95,-150.6 -324.3,150.71 -258.8,393.14 9.59,35.63 75.98,94.58 159.18,141.3 78.38,44.26 177,112.27 218.95,151.21l76.25 70.7 0 -630.25c0,-828.92 -64.09,-1139.25 -298.74,-1445.72 -195.31,-255.2 -429.05,-345.13 -635.74,-244.45 -122.53,59.56 -230.55,206.29 -230.55,312.75 0,94.47 103.03,247.63 203.26,302.16 71.55,38.93 80.11,38.16 117.32,-11.54 29.69,-39.66 32,-61.19 8.85,-82.64 -21.97,-20.52 -35.02,-18.84 -43.98,5.43 -14.68,39.66 -91.27,47.17 -91.27,8.85 0,-26.67 76.86,-112.11 100.84,-112.11 55.24,0 120.97,67.9 120.97,124.88 0,82.59 42.58,88.24 84.1,11.38 75.34,-139.96 -28.86,-262.31 -159.69,-187.59 -122.08,69.93 -207.19,-1.89 -103.42,-87.33 28.17,-23.26 37.31,-60.18 26.67,-108.36 -18.94,-85.44 62.19,-176.71 143.37,-161.2 58.33,11.15 71.16,135.14 15.92,153.45 -20.52,6.72 -34.62,-12.55 -34.62,-47.51 0,-32.49 -12.56,-51.33 -27.85,-41.97 -15.19,9.35 -27.68,39.44 -27.68,67 0,36.53 28.46,54.34 106.34,66.73 124.37,19.72 191.28,83.42 215.81,205.46 13.89,68.52 31.82,87.73 82.58,87.73 75.58,0 142.2,-94.79 89.36,-127.18 -18.21,-11.14 -37.87,-5.71 -43.98,12.11 -15.08,44.87 -61.69,40.72 -61.69,-5.55 0,-68.01 73.07,-107.07 136.88,-73.23 124.66,66.28 43.76,254.26 -111.5,259.41 -128.42,4.32 -219.35,107.34 -199.85,226.41 15.7,95.58 -32.38,148.3 -84.53,93.17 -24.54,-26.06 -23.87,-37.15 2.63,-46.79 65.1,-23.82 3.92,-63.08 -99,-63.7 -236.67,-1.28 -432.98,-163.94 -472.09,-391.02 -11.09,-64.82 -32.38,-118.45 -47.11,-119.22 -141.08,-7.06 -213.3,-123.65 -155.13,-250.45 37.59,-81.79 149.53,-81.18 165.39,1.12 7.96,41.52 -2.3,48.91 -49.92,36.53 -51.7,-13.4 -58.82,-5.43 -51.32,58.04 12.89,111 115.13,114.91 160.56,6.11 19.33,-46.28 77.88,-121.46 130.21,-167.01l94.97 -82.81 -49.31 -83.04c-27.29,-45.76 -67.39,-79.66 -89.19,-75.52 -50.31,9.75 -73.74,72.32 -25.05,66.89 57.88,-6.45 68.14,42.35 15.8,75.08 -36.91,23.02 -58.38,19.71 -93.06,-14.68 -56.65,-56.26 -29.47,-154.03 53.4,-191.56 41.57,-18.82 60.95,-53.72 63.19,-113.52 3.81,-102.65 118.32,-213.91 220.25,-213.91 87.96,0 184.55,96.71 173.56,173.57 -11.6,80.79 -104.94,96.92 -124.77,21.62 -21.51,-81.3 -114.4,-73.96 -135.92,10.87 -20.5,81.02 54.13,221.37 151.72,285.46 63.82,41.86 65.5,41.23 46.28,-18.82 -23.36,-73.29 24.15,-142.2 98.1,-142.2 58.04,0 107.96,77.26 87.23,135.02 -10.26,28.58 -26.95,21.53 -64.99,-27.56 -38.83,-50.08 -51.33,-55.24 -51.83,-21.23 -0.78,53.96 41.06,89.01 151.95,127.28 45.76,15.8 104.78,37.42 131.11,48.02 30.86,12.39 3.91,-45.89 -75.13,-162.82 -136.14,-201.63 -168.64,-316.33 -142.71,-504.13 10.77,-77.76 5.55,-140.07 -13.77,-163.09 -41.47,-49.7 -153.07,-47.62 -172.68,3.03 -19.33,49.92 17.7,75.58 76.47,53.11 54.96,-20.89 57.88,26.17 4.32,70.27 -58.82,48.4 -154.35,-10.59 -154.35,-95.19 0,-135.76 183.43,-185.45 290.88,-78.73 55.01,54.47 82.98,33.51 181.03,-136.42 120.85,-209.09 99.83,-365.58 -41.74,-311.63 -33.79,12.79 -35.53,28.58 -9.65,85.11 28.86,62.92 22.14,78.61 -71.54,166.24 -56.76,53.22 -126.57,96.71 -154.86,96.71 -58.49,0 -138.68,-69.64 -138.68,-120.64 0,-61.79 72.17,-133.33 124.38,-123.38 73.29,14.12 86.96,78.73 16.65,78.73 -33,0 -57.88,17.82 -57.88,41.35 0,55.97 101.91,52.6 134.13,-4.53 14.12,-25.27 19.61,-92.67 11.88,-149.71 -11.48,-84.94 -1.79,-115.42 53.84,-167.52 55.53,-52.21 65.72,-84.16 56.36,-175.59 -13.38,-131.78 34.12,-185.83 151.34,-172.56 60.28,6.88 79.78,25.04 86.21,80.11 9.25,78.77 -56.65,151.45 -108.35,119.73 -23.87,-14.68 -18.82,-30.7 18.09,-57.53 38.67,-28.19 43.47,-44.99 19.21,-69.02 -24.15,-24.04 -42.52,-23.14 -74.73,3.41 -56.65,46.67 -54.23,118.45 5.71,173.96 26.65,24.66 76.59,70.15 110.99,101.14 44.26,40.05 62.41,87.46 62.41,163.54 0,91.16 10.26,109.76 68.92,124.26 125.27,31.26 123.99,228.94 -1.29,204.78 -62.8,-11.99 -86.72,-78.27 -28.45,-78.27 57.64,0 56.52,-44.37 -1.63,-66.44 -25.04,-9.65 -47.4,-14.07 -49.81,-9.86 -2.4,4.21 -19.16,42.08 -37.54,84.2 -28.57,66.12 -26.38,79 15.3,93.68 72.16,25.38 145.39,94.79 145.39,137.83 0,58.65 -76.76,73.95 -126,25.04 -60.07,-59.56 -139.96,-55.35 -206.86,11.14 -80.39,79.79 -72.83,250.06 18.44,416.56l73.95 134.75 83.36 -166.85c82.2,-164.72 82.65,-167.8 30.09,-219.75 -39.65,-39.44 -63.7,-45.49 -94.79,-24.03 -31.37,21.62 -33,32.09 -6.95,42.58 45.76,18.6 44.77,92.05 -1.41,92.05 -45.49,0 -102.65,-55.51 -102.65,-99.9 0,-53.11 81.3,-120.51 145.51,-120.51 76.98,0 159.68,76.88 159.79,148.92 0.1,35.13 32.61,75.97 83.31,104.55 45.6,25.77 82.91,66.51 82.91,90.37 0,55.64 -77.49,86 -117.66,46 -49.08,-48.69 -104.22,16.69 -104.22,123.54 0,83.76 6.56,91.89 63.59,77.76 86.84,-21.62 183.15,79.61 140.34,147.13 -34.68,54.34 -124.77,62.19 -141.46,12.28 -6.44,-18.94 8.24,-34.52 32.39,-34.52 24.15,0 43.86,-12.37 43.86,-27.39 0,-44.43 -83.31,-31.72 -101.51,15.29 -9.08,23.64 27.46,138.33 81.41,254.76 53.84,116.59 104.38,230.44 112.33,253.24 7.84,22.63 15.29,-262.6 16.58,-634.01 2.29,-734.01 -18.05,-874.58 -176.21,-1211.87 -72.28,-154.25 -93.84,-340.31 -42.86,-371.52 17.21,-10.47 0.51,-50.48 -41.57,-100.12 -38.61,-45.49 -70.09,-94.18 -70.09,-108.07 0,-14.01 -20.34,-25.55 -44.99,-25.55 -37.19,0 -38.93,7.33 -9.97,42.07 45.38,54.24 10.87,88.75 -50.42,50.42 -66.78,-41.84 -58.55,-128.87 15.29,-160.96 34.29,-15.08 62.36,-47.17 62.36,-71.55 0,-52.84 63.99,-112 188.98,-174.97 68.36,-34.4 89.59,-61.58 83.14,-106.57 -4.64,-33.28 -21.06,-56.53 -36.41,-51.7 -15.18,4.82 -24.25,25.55 -19.94,46.16 12.39,60.95 -44.1,75.07 -74.62,18.6 -39.44,-73.23 22.01,-150.32 109.98,-138.05 55.64,7.83 69.42,27.4 76.2,108.3 5.32,62.7 -6.95,111.26 -33.51,133.12 -33.33,27.39 -35.12,44.87 -8.96,86.45 47.91,76.25 -13.89,135.02 -91.38,86.84 -49.92,-30.81 -54.9,-26.67 -54.9,46.5 0,56.02 26.04,102.02 85.5,151.72 46.9,39.17 96.81,71.27 110.88,71.27 34.51,0 33.1,-697.6 -1.41,-731.82 -14.79,-14.79 -43.09,-73.07 -62.86,-129.49l-35.74 -102.52 -1141.05 2306.36c-627.56,1268.51 -1170.41,2393.14 -1206.26,2499.19 -54.12,159.79 -65.21,249.15 -65.21,523.24 0,384.68 13.89,422.39 345.74,936.27 286.86,444.06 311.11,520.32 333.2,1046.52 22.01,523.36 61.96,646.22 254.74,785.17l120.35 86.62 17.3 -206.8c12.39,-147.13 41.52,-257.05 101.14,-380.76l0.27 0.4zm3220.67 478.98c162.69,-119.5 205.17,-262.6 226.17,-763.1 22.25,-526.26 46.56,-602.51 333.25,-1046.46 331.96,-514.06 345.9,-551.7 345.9,-936.38 0,-274.09 -11.14,-363.45 -65.39,-523.23 -35.9,-106.07 -578.77,-1230.69 -1206.25,-2499.2l-1141.05 -2306.36 -35.8 102.53c-19.72,56.52 -47.91,114.62 -62.81,129.48 -34.51,34.22 -35.74,731.82 -1.39,731.82 14.06,0 63.98,-32.11 110.99,-71.27 59.45,-49.7 85.33,-95.7 85.33,-151.72 0,-73.17 -4.93,-77.31 -54.74,-46.39 -77.59,48.02 -139.45,-10.76 -91.38,-87.01 26.06,-41.57 24.26,-58.89 -9.14,-86.45 -26.55,-21.86 -38.71,-70.32 -33.39,-133.12 6.83,-80.9 20.5,-100.46 76.13,-108.25 88.02,-12.37 149.54,64.71 109.99,137.94 -30.31,56.53 -86.96,42.35 -74.46,-18.6 4.15,-20.62 -4.82,-41.35 -20.12,-46.16 -15.29,-4.76 -31.58,18.44 -36.41,51.72 -6.44,44.98 14.79,72.16 83.2,106.56 125.17,62.92 189.03,122.09 189.03,175.09 0,24.25 28.07,56.52 62.42,71.44 73.73,32.09 81.97,119.12 15.19,160.96 -61.19,38.27 -95.7,3.65 -50.48,-50.42 28.96,-34.73 27.34,-41.97 -9.86,-41.97 -24.76,0 -44.99,11.37 -44.99,25.37 0,13.91 -31.6,62.6 -70.14,108.09 -42.14,49.7 -58.66,89.64 -41.58,100.12 50.93,31.21 29.59,217.33 -42.69,371.51 -158.16,337.4 -178.68,477.85 -176.26,1211.88 1.18,371.41 8.64,656.63 16.58,634.01 7.84,-22.75 58.44,-136.65 112.38,-253.14 53.84,-116.53 90.55,-231.21 81.41,-254.74 -18.21,-47.12 -101.64,-59.8 -101.64,-15.41 0,15.01 19.83,27.5 43.98,27.5 24.15,0 38.66,15.46 32.38,34.4 -16.81,49.92 -106.95,42.19 -141.46,-12.1 -42.98,-67.63 53.45,-168.93 140.18,-147.3 56.76,14.12 63.58,6.05 63.58,-75.58 0,-110.38 -48.18,-170.15 -101.64,-126.18 -19.99,16.42 -55.24,22.75 -78.26,14.01 -68.24,-26.04 -48.19,-99.51 41.12,-149.82 46.79,-26.55 83.04,-70.03 83.2,-99.9 0.27,-74.35 80.29,-153.62 155.13,-153.62 68.14,0 150.2,65.71 150.2,120.34 0,44.37 -57.03,99.9 -102.65,99.9 -45.99,0 -47.17,-73.45 -1.39,-91.94 26.16,-10.47 24.43,-21.11 -6.85,-42.75 -31.09,-21.51 -55.13,-15.4 -94.97,24.04 -52.44,51.94 -52.1,55.01 30.09,219.75l83.42 167.01 73.84 -134.92c91.44,-166.46 98.89,-336.79 18.5,-416.56 -66.9,-66.38 -146.63,-70.7 -206.69,-11.14 -49.31,48.9 -126.18,33.61 -126.18,-25.05 0,-42.96 73.29,-112.38 145.5,-137.82 41.68,-14.68 43.71,-27.58 15.13,-93.68 -18.21,-42.08 -35.12,-80 -37.42,-84.2 -2.4,-4.21 -24.87,0 -49.91,9.97 -58.15,22.14 -59.28,66.44 -1.63,66.44 58.44,0 34.4,66.28 -28.29,78.27 -125.39,24.15 -126.57,-173.57 -1.24,-204.78 58.55,-14.5 68.92,-33.1 68.92,-124.26 0,-76.09 18.09,-123.47 62.46,-163.54 34.3,-30.99 84.21,-76.54 110.89,-101.13 60.06,-55.53 62.36,-127.3 5.76,-173.97 -32.38,-26.55 -50.71,-27.45 -74.78,-3.41 -24.15,24.03 -19.5,40.83 19.21,69.02 36.93,26.78 41.97,42.86 18.21,57.48 -51.83,31.76 -117.71,-40.96 -108.46,-119.67 6.44,-55.14 25.88,-73.23 86.33,-80.19 117.21,-13.27 164.61,40.85 151.22,172.68 -9.42,91.28 0.83,123.28 56.52,175.49 55.48,52.21 65.34,82.58 53.84,167.51 -7.73,57.04 -2.4,124.38 11.78,149.66 32.22,57.03 134.13,60.57 134.13,4.59 0,-23.53 -24.87,-41.35 -57.77,-41.35 -70.36,0 -56.76,-64.6 16.69,-78.72 52.21,-9.98 124.26,61.58 124.26,123.38 0,50.92 -80.06,120.62 -138.66,120.62 -28.29,0 -97.99,-43.47 -154.86,-96.76 -93.51,-87.63 -100.34,-103.26 -71.55,-166.23 25.99,-56.53 24.26,-72.33 -9.46,-85.11 -141.75,-53.96 -162.7,102.52 -41.86,311.61 98.21,169.94 126,190.89 181.02,136.43 107.46,-106.74 290.9,-57.03 290.9,78.72 0,84.59 -95.58,143.66 -154.35,95.19 -53.62,-44.15 -50.72,-91.16 4.31,-70.32 58.89,22.52 95.81,-3.2 76.48,-53.11 -19.55,-50.66 -131.22,-52.72 -172.68,-3.04 -19.21,23.03 -24.54,85.34 -13.78,163.1 25.94,187.85 -6.55,302.54 -142.7,504.18 -79,116.94 -105.78,175.2 -75.08,162.82 26.33,-10.63 85.33,-32.21 131.11,-48.07 110.88,-38.27 152.73,-73.29 151.95,-127.3 -0.4,-34.01 -13,-28.85 -51.72,21.24 -38.03,49.08 -54.73,56.14 -65.05,27.56 -20.62,-57.82 29.31,-135.03 87.35,-135.03 73.96,0 121.46,68.92 97.99,142.2 -19.16,60.07 -17.59,60.68 46.28,18.84 97.6,-64.1 172.18,-204.4 151.66,-285.47 -21.35,-84.82 -114.4,-92.15 -135.75,-10.87 -19.84,75.36 -113.18,59.17 -124.89,-21.62 -10.97,-76.86 85.73,-173.56 173.57,-173.56 101.85,0 216.44,111.21 220.23,213.91 2.24,59.78 21.64,94.69 63.32,113.52 82.8,37.54 109.98,135.25 53.22,191.5 -32.22,32 -57.27,37.03 -88.24,17.59 -49.81,-31.09 -42.35,-84.1 11.03,-77.98 48.69,5.43 25.27,-57.14 -24.94,-66.9 -22.01,-4.25 -62.07,29.7 -89.25,75.47l-49.41 83.09 95.03 82.75c52.21,45.55 110.76,120.74 130.1,167.01 45.38,108.86 147.63,105.05 160.69,-6.11 7.33,-63.47 0.27,-71.44 -51.43,-58.04 -47.68,12.39 -57.78,5.04 -49.81,-36.53 15.8,-82.19 127.68,-82.8 165.22,-1.12 58.15,126.8 -14.01,243.39 -154.97,250.45 -14.9,1.06 -36.13,54.34 -47.28,119.22 -39.04,227.08 -235.37,389.61 -472.03,391.02 -102.76,1.01 -163.94,39.95 -98.84,63.7 26.55,9.64 27.18,20.73 2.53,46.79 -52.21,55.13 -100.12,2.4 -84.55,-93.17 19.45,-119.12 -71.44,-222.09 -199.74,-226.41 -155.36,-5.15 -236.14,-193.19 -111.66,-259.41 63.88,-33.84 136.93,5.22 136.93,73.23 0,46.28 -46.61,50.48 -61.69,5.55 -6.1,-17.83 -25.77,-23.26 -44.03,-12.16 -52.72,32.39 13.89,127.18 89.36,127.18 50.71,0 68.8,-19.21 82.53,-87.73 24.54,-122.03 91.38,-185.74 215.94,-205.46 77.87,-12.39 106.17,-30.25 106.17,-66.72 0,-27.58 -12.39,-57.65 -27.68,-67.02 -15.3,-9.35 -27.79,9.59 -27.79,41.97 0,35.02 -14.07,54.34 -34.62,47.57 -55.25,-18.38 -42.35,-142.36 15.91,-153.45 81.18,-15.57 162.37,75.76 143.49,161.2 -10.77,48.18 -1.63,85.11 26.67,108.36 103.64,85.44 18.71,157.26 -103.54,87.33 -130.82,-74.73 -235.04,47.68 -159.55,187.64 41.46,76.86 83.92,71.15 83.92,-11.38 0,-56.97 65.88,-124.88 120.97,-124.88 24.03,0 101,85.49 101,112.11 0,38.26 -76.76,30.81 -91.38,-8.85 -9.01,-24.26 -21.85,-25.88 -43.97,-5.44 -23.14,21.53 -20.85,43.04 8.84,82.7 37.15,49.7 45.78,50.42 117.32,11.54 100.36,-54.5 203.39,-207.7 203.39,-302.15 0,-106.46 -108.25,-253.24 -230.73,-312.75 -206.69,-100.68 -440.42,-10.76 -635.74,244.45 -234.64,306.47 -298.74,616.8 -298.74,1445.72l0 630.2 76.37 -70.71c41.97,-38.93 140.46,-106.94 218.95,-151.21 83.2,-46.77 149.43,-105.66 159.06,-141.3 32.39,-119.83 16.31,-233.24 -46.16,-325.41 -70.36,-103.98 -158.78,-132.1 -212.63,-67.73 -56.92,68.12 -14.28,125.67 93.28,125.67 121.07,0 154.57,49.14 76.19,112.11 -33.23,26.73 -59.89,79.68 -59.89,118.83 0,45.04 -25.21,87.12 -69.42,115.81 -64.2,41.68 -74.45,41.68 -138.66,0 -75.86,-49.3 -87.46,-97.43 -36.03,-148.52 46.28,-45.89 105.45,-41.35 105.45,8.18 0,22.81 -12.55,41.35 -27.84,41.35 -15.19,0 -27.68,12.39 -27.68,27.5 0,48.3 80.11,29.59 109.98,-25.65 21.62,-40.06 17.98,-63.72 -14.91,-96.31 -23.87,-23.82 -55.35,-43.26 -69.75,-43.26 -14.39,0 -46.16,-41.68 -70.7,-92.66 -38.54,-80.29 -39.38,-103.21 -6.16,-171.84 45.15,-93.57 168.75,-159.89 256.88,-138.05 67.73,16.98 195.81,123.77 214.31,178.9 8.84,26.28 29.69,24.76 90.76,-6.67 95.08,-49.08 193.47,-21.91 205.34,56.65 9.59,63.48 -60.78,132.11 -106.57,104.04 -22.63,-13.89 -22.84,-27.56 -1.28,-49.2 41.47,-41.12 37.93,-73.95 -7.96,-73.95 -66.11,0 -109.87,81.3 -112.11,208.08 -1.23,67.23 5.71,122.35 15.41,122.35 44.26,0 355.71,-228.31 397.05,-291 58.89,-89.25 46.79,-214.63 -22.12,-227.69 -41.63,-7.84 -47.52,1.9 -31.77,51.21 14.18,44.64 9.36,57.64 -18.21,48.69 -20.62,-6.85 -41.35,-44.37 -46.16,-83.6 -10.26,-85.44 71.82,-123.47 162.42,-75.18 80.91,42.86 90.66,23.42 54.63,-109.37 -35.9,-132.39 -135.41,-199.5 -207.7,-139.95 -53.84,44.48 -54.84,110.88 -1.62,110.88 24.81,0 34.51,-16.2 24.81,-41.35 -10.25,-26.28 0.51,-41.35 29.47,-41.35 61.29,0 85.95,73.45 42.3,125.67 -46.11,55.14 -135.15,40.46 -181.93,-29.97 -31.09,-46.79 -30.87,-67.9 2.19,-130.83 34.9,-66.72 34.22,-74.96 -5.55,-74.96 -78.16,0 -146.17,85.95 -146.17,184.55 0,75.08 16.3,102.53 83.59,140.36 94.97,53.22 98.61,125.27 6.85,138.15 -79.4,11.27 -197.11,-104.27 -219.59,-215.93 -15.06,-75.08 -25.55,-82.75 -91.65,-68.36 -41.07,9.01 -110.25,2.8 -153.62,-13.5 -63.88,-24.04 -87.47,-21.35 -122.77,14.28 -39.83,40.16 -39.44,47.41 4.76,79.9 63.48,46.77 61.46,71.1 -5.94,71.1 -103.14,0 -124.55,-124.66 -38.16,-223.38 29.7,-34 32,-62.07 9.59,-120.46 -23.02,-60.06 -18.82,-97.09 20.01,-175.88 57.77,-117.2 164.1,-164.99 278.12,-125.27 65.83,23.14 76.19,41.57 76.19,136.14 0,91.16 -9.35,109.48 -55.46,109.48 -40.73,0 -55.53,-18.38 -55.53,-68.81 0,-46.9 -13.27,-66 -41.46,-59.78 -111.27,24.54 -145.78,131.6 -67.53,209.2 65.22,64.71 144.5,53.01 296.56,-43.87 154.96,-98.71 331.62,-116.7 442.11,-44.77 64.31,41.86 66.38,40.17 143.08,-121.86 66.34,-140.34 95.97,-172.28 202.03,-218.95 107.69,-47.23 123.15,-64.31 115.64,-128.13 -4.64,-40.56 -21.11,-67.63 -36.24,-60.07 -15.3,7.68 -24.81,35.53 -21.13,62.09 9.25,67.51 -68.41,60.41 -90.26,-8.34 -22.86,-71.34 30.2,-136.31 111.39,-136.31 87.63,0 133.51,66.38 118.05,170.93 -10.37,69.92 0.78,99.72 52.21,139.95 40.16,31.39 65.5,80.13 65.5,126.18 0,80.56 44.1,141.19 102.65,141.19 19.83,0 36.03,-18.21 36.03,-40.45 0,-24.49 -16.2,-34.12 -41.58,-24.49 -28.78,10.97 -41.57,-1.9 -41.57,-42.25 0,-68.24 86.11,-79.66 137.54,-17.98 44.78,53.51 27.58,124.15 -41.17,169.43 -46.67,30.7 -68.02,30.87 -126.9,0 -39.04,-20.12 -107.34,-31.88 -152,-26.06 -44.48,5.71 -98.5,-1.01 -119.73,-15.08 -53.06,-35.12 -17.32,-113.73 51.7,-113.73 31.6,0 56.36,-18.09 56.36,-41.35 0,-66.62 -134.01,-49.14 -204.66,26.55 -90.88,97.32 -126.9,248.77 -109.1,458.42 19.61,229.03 -16.81,340.92 -165.62,508.66l-115.98 130.83 161.81 -18.94c89.03,-10.37 188.65,-33 221.37,-50.31 123.77,-65.4 164.33,-179.3 86.62,-243.39 -56.93,-46.9 -88.47,-9.75 -47.41,55.64 40.73,64.6 -4.82,103.03 -64.09,54.13 -83.52,-68.91 -28.07,-191.79 86.62,-191.79 80.39,0 131.6,66.12 128.69,166.24 -1.23,44.88 9.14,81.63 23.14,81.63 13.91,0 82.93,-54.74 153.18,-121.63 125.17,-119.06 151.83,-203.89 72.33,-230.22 -22.75,-7.46 -33.28,6.16 -27.68,36.14 4.82,26.55 -6.85,53.73 -25.94,60.34 -47.91,16.63 -44.99,-114.91 3.41,-154.92 20.95,-17.21 58.44,-23.64 83.31,-14.18 67.9,25.94 54.52,-36.91 -24.76,-115.63 -51.6,-51.21 -86,-64.26 -131.78,-50.08 -105.45,32.59 -134.85,116.93 -61.96,176.98 59.28,48.8 53.11,137.65 -9.64,137.65 -64.82,0 -133.12,-74.45 -157.66,-172.05 -10.48,-41.74 -36.14,-75.76 -57.04,-75.76 -57.77,0 -129.81,-126.57 -109.08,-191.39 20.5,-63.92 142.58,-105.27 185.45,-62.81 36.03,35.64 19.94,122.09 -25.55,137.16 -20.52,6.83 -34.68,-12.55 -34.68,-47.57 0,-32.49 -12.5,-51.33 -27.68,-41.97 -41.18,25.31 -33.61,115.81 11.14,132.89 21.35,8.07 79.9,-15.29 130.2,-52.21 141.46,-103.53 309.11,-82.3 419.7,53.35 26.39,32.38 48.29,80.4 48.53,106.95 0.5,32.61 22.63,48.18 68.4,48.18 87.35,0 157.66,96.09 128.31,175.36 -24.36,66.01 -184.05,105.56 -162.08,40.17 6.72,-20.12 29.8,-36.53 51.21,-36.53 21.35,0 43.09,-21.62 48.29,-48.18 6.34,-33 -8.18,-48.19 -46.5,-48.19 -62.92,0 -71.95,10.64 -97.09,115.42 -14.91,62.19 -5.55,80.06 57.77,110.2 102.25,48.69 149.82,147.8 114.8,239.18 -32.09,84.1 -71.04,112.51 -154.46,113.02 -67.51,0 -132,-90.99 -108.09,-153.18 22.86,-59.06 72.46,-46.9 72.46,17.93 0,43.25 14.9,54.9 62.46,48.18 128.82,-18.21 67.13,-215.48 -67.39,-215.48 -31.1,0 -95.7,33 -143.66,73.23 -124.66,104.44 -397.96,226.81 -551.93,247.02 -72.44,9.59 -131.72,21.74 -131.72,27.07 0,5.32 54.85,59.89 122.03,121.35 67.23,61.41 129.81,142.2 139.27,179.51 17.72,70.32 55.64,88.18 85.5,40.34 9.36,-15.08 3.92,-27.46 -12.28,-27.46 -16.18,0 -29.36,-18.71 -29.36,-41.35 0,-53.45 40.06,-52.71 94.9,1.85 55.25,54.74 11.94,149.59 -68.24,149.59 -30.59,0 -54.5,18.6 -54.5,42.47 0,23.42 -30.6,73.05 -68.02,110.25 -99.34,98.61 -268.15,94.58 -345.74,-8.23 -98.95,-131.04 -115.92,-146.12 -143.99,-128.92 -17.42,10.76 -15.41,31.2 5.6,56.36 40.06,47.96 16.02,78.77 -43.65,56.02 -115.63,-44.15 -60.28,-192.18 66.39,-177.67 45.15,5.33 88.47,-11.76 117.04,-45.89 38.43,-45.76 52.21,-48.57 89.64,-17.65 34.35,28.3 37.54,48.64 14.28,91.78 -22.84,42.59 -20.11,65.11 12.39,97.33 49.41,49.08 114.52,31.2 154.25,-42.47 60.9,-113.02 -157.77,-358.52 -362.11,-406.43 -72.56,-17.08 -73.66,-15.19 -58.77,94.97 17.54,129.92 -22.52,195.42 -119.33,195.42 -67.86,0 -123.89,-71.55 -102.53,-130.82 16.31,-44.88 95.97,-44.88 85.62,0 -12.55,54.12 37.93,66.84 69.24,17.58 33.68,-53 9.25,-129.59 -48.4,-151.61 -22.75,-8.57 -98.2,5.84 -167.75,32.11 -120.62,45.76 -124.26,50.31 -79.66,99.11 38.03,41.84 40.83,63.98 15.01,119.95 -50.32,109.88 -202.65,79.23 -159.68,-32.09 13.5,-34.73 24.54,-36.53 57.88,-9.01 33.5,27.56 41.35,26.04 41.35,-7.68 0,-107.28 -152.06,-62.97 -285.18,83.31 -48.69,53.52 -46.4,54.52 138.66,67.8 111.5,8.07 255.99,41.97 354.6,83.2 91.48,38.43 276.48,115.58 410.85,171.43 298.62,124.27 496.84,150.83 636.3,85.22 119.33,-56.25 179.62,-174.36 133.12,-260.69 -38.94,-72.28 -155.87,-75.97 -193.57,-6.05 -33.85,62.81 -13.62,86.23 74.34,86.23 87.01,0 67.8,65.5 -23.02,78.38 -36.86,5.17 -89.48,33.12 -116.81,61.97 -58.28,61.51 -101.64,65.83 -169.54,16.41 -74.35,-53.84 -49.31,-170.55 36.51,-170.55 36.93,0 72.28,15.57 78.61,34.4 6.95,20.84 -13.4,34.51 -51.83,34.51 -47.17,0 -55.24,7.84 -31.88,31.09 59.78,59.4 118.32,4.32 118.32,-111.39 0,-117.42 70.76,-195.2 177.89,-195.2 72.94,0 182.64,105.96 183.15,177 0.4,46.9 5.33,49.81 27.34,15.8 55.75,-85.55 31.21,-221.08 -55.64,-307.42 -76.48,-75.81 -96.71,-82.03 -242.7,-73.56 -127.3,7.44 -159.29,1.01 -159.29,-32.11 0,-22.63 28.07,-53.45 62.47,-68.35 36.3,-15.97 62.3,-51.44 62.3,-85.34 0,-31.88 25.78,-81.01 57.14,-109.36 76.37,-68.53 152.33,-22.65 147.51,89.13 -2.91,65.34 14.91,89.97 97.09,133.91l100.46 53.84 61.46 -61.96c40.96,-41.23 94.45,-61.96 160.4,-61.96 105.78,0 145.51,-46.67 111.21,-130.88 -17.19,-41.97 -22.84,-39.71 -45.49,18.44 -18.21,47.01 -34.4,58.04 -55.24,37.42 -51.72,-51.33 -15.19,-130.99 64.21,-140.07 102.81,-11.88 151.44,77.71 104.04,191.5 -25.66,61.29 -26.17,89.54 -2.42,113.12 80.8,80.29 -7.83,295.99 -121.74,295.99 -63.59,0 -85.11,-84.93 -31.37,-124.05 105.72,-76.75 17.98,-181.18 -89.36,-106.46 -44.48,30.99 -58.66,69.82 -58.66,161.31 0,66.38 -11.88,151.66 -26.55,189.76 -23.53,61.58 -15.8,75.76 69.42,128.08 52.71,32.22 95.8,70.14 95.8,84.1 0,13.89 37.09,25.26 82.3,25.26 89.64,0 151.45,-75.18 122.77,-149.42 -24.54,-63.48 -121.69,-55.35 -121.69,10.08 0,76.64 -48.18,95.58 -69.92,27.56 -20.73,-64.71 52.1,-163.59 120.51,-163.59 69.64,0 143.66,86.21 143.66,167.51 0,75.36 -107.63,190.55 -177.89,190.55 -20.11,0 -27.95,39.05 -21.51,106.57 17.32,180.68 -95.3,333.98 -245.41,333.98 -32.99,0 -96.92,26.16 -142.07,58.04 -105.83,74.85 -104.55,203.66 1.9,203.66 36.91,0 72.66,-16.82 79.66,-37.32 9.03,-27.07 -3.81,-32.22 -46.28,-18.82 -42.08,13.27 -58.82,6.67 -58.82,-23.02 0,-56.26 44.37,-79.52 111.27,-58.55 77.47,24.43 75.46,166.23 -2.91,207.86 -127.18,67.63 -270.04,-44.1 -234.76,-183.71 9.35,-36.86 47.01,-93.17 83.92,-125.01 58.39,-50.31 61.8,-62.97 27.07,-97.48 -22.01,-21.91 -40.11,-88.35 -40.11,-147.91 0,-59.56 -12.5,-108.25 -27.68,-108.25 -15.3,0 -27.85,26.33 -27.85,58.44 0,48.91 -6.77,52.84 -41.57,24.26 -58.04,-47.91 -51.83,-102.81 15.69,-138.66 43.09,-22.86 67.74,-21.74 100.12,5.03 23.65,19.33 85.34,31.72 137.04,27.34 79.28,-6.83 93.91,1.02 93.91,49.14 0,38.77 -17.82,57.14 -55.53,57.14 -64.31,0 -77.98,95.7 -17.03,118.83 75.36,28.68 155.76,-60.07 155.76,-171.83 0,-183.16 -168.58,-326.53 -262.71,-223.27 -24.25,26.55 -96.71,71.04 -161.02,98.84 -64.49,27.84 -120.74,52.71 -125.17,55.35 -4.42,2.63 18.84,50.31 51.83,105.83 84.43,142.07 65.4,355.6 -45.99,513.26 -209.83,297.45 -233.63,342.5 -233.63,442.84 0,77.98 17.58,116.14 73.05,159.62 89.76,70.04 98.89,70.33 180.52,3.71 53.22,-43.36 59.83,-62.58 34.78,-103.16 -16.97,-27.5 -65.88,-56.09 -108.75,-63.7 -141.97,-25.15 -109.1,-112.22 45.6,-120.96 29.69,-1.63 69.69,-34.01 88.64,-71.82 41.17,-82.3 150.7,-92.95 196.32,-19.11 24.54,39.83 20.12,57.65 -21.85,88.64 -63.99,47.17 -115.82,23.87 -69.66,-31.37 37.04,-44.27 17.21,-81.2 -28.45,-53.12 -41.74,25.55 -36.81,102.42 13,201.53 52.71,104.78 30.25,208.98 -60.57,279.74l-67.13 52.5 56.26 91.78c30.97,50.32 56.41,122.98 56.41,161.2 0.11,84.43 -70.93,192.06 -126.79,192.06 -63.24,0 -111.26,126.4 -67.9,178.22 47.79,57.32 76.14,53.01 113.9,-17.21 27.07,-50.2 25.21,-56.65 -11.99,-42.47 -60.9,23.26 -82.03,-22.12 -30.2,-64.87 35.13,-28.97 50.82,-27.07 88.48,10.25 69.13,68.63 16.97,194.81 -85.44,206.58 -111.9,12.77 -164.38,-41.74 -150.83,-156.88 7.96,-67.23 -3.81,-110.99 -39.22,-146.12 -59.16,-58.82 -64.59,-130.5 -15.01,-197.89 53.35,-72.44 140.18,-29.93 117.93,57.82 -12.28,48.4 -6.83,64.49 18.84,56.14 66.89,-21.9 56.02,-147.29 -20.63,-237.66 -85.16,-100.52 -124.88,-107.69 -172.9,-31.42 -43.76,69.64 -161.81,71.93 -198.62,3.91 -19.5,-36.3 -16.92,-65.77 8.74,-100.62 46.79,-63.59 99.51,-31.6 80.13,48.69 -14.07,58.31 -11.99,59.16 33.89,16.07 46.61,-43.7 46.16,-51.43 -10.26,-166.96 -32.49,-66.73 -59.05,-136.65 -59.05,-155.53 0,-18.84 -13.27,-26.06 -29.42,-16.2 -49.99,30.75 -192.28,-45.6 -209.09,-112.11 -24.26,-96.37 33.28,-178 125.55,-178 77.88,0 130.1,60.28 97.6,112.62 -25.21,40.34 -67.8,28.68 -67.8,-18.6 0,-24.04 -15.69,-38.44 -34.73,-32.11 -18.94,6.34 -34.68,41.35 -34.68,78 0,55.24 13.78,66.44 81.3,66.44 66.12,0 85.22,-14.79 102.65,-79.73 11.88,-43.98 61.18,-128.98 109.76,-188.87 70.36,-87.01 76.19,-102.53 29.08,-77.49 -116.93,62.09 -234.64,-71.27 -169.54,-192.01 25.04,-46.39 22.47,-68.41 -12.28,-106.57 -81.41,-89.25 -38.43,-222.76 71.65,-222.76 51.33,0 116.94,90.55 87.07,120.13 -9.47,9.47 -34.51,2.91 -55.64,-14.5 -25.55,-21.01 -47.62,-22.41 -66.11,-4.1 -37.87,37.71 37.19,97.49 94.85,75.53 73.33,-27.85 85.2,-121.25 25.66,-200.86 -61.59,-82.19 -88.75,-97.38 -446.54,-248.82 -199.95,-84.71 -254.37,-99 -239.01,-62.91 10.87,25.55 25.98,75.18 33.61,110.2 23.87,109.98 200.85,184.33 200.85,84.33 0,-15.64 -25.32,-19.72 -58.04,-9.47 -46.16,14.57 -56.02,8.01 -48.18,-32.22 12.95,-66.84 107.61,-82.81 149.93,-25.38 79.27,107.58 -55.14,220.97 -190.6,160.91 -49.31,-21.74 -74.57,-12.39 -139.73,52.33 -55.99,55.64 -73.29,92.9 -58.55,126.4 19.72,44.99 21.51,44.88 32.43,-1.01 12.55,-51.93 50.21,-63.58 75.36,-23.14 33.5,53.86 -19.5,115.64 -92.16,107.24 -51.7,-5.94 -75.36,-26.72 -81.79,-71.82 -5.1,-34.9 -36.81,-73.84 -70.54,-86.61 -94.58,-35.64 -137.04,-101.75 -116.7,-181.93 22.14,-87.63 108.97,-81.52 121.86,8.74 17.21,119.33 143.72,50.82 143.72,-77.88 0,-69.13 -92,-218.44 -134.64,-218.44 -10.76,0 -34.11,38.03 -51.83,84.59 -26.95,70.66 -44.98,83.2 -110.14,75.69 -61.41,-6.95 -77.88,-22.86 -77.88,-75.46 0,-86.85 61.69,-106.68 76.14,-24.49 10.25,58.65 13,59.5 34.35,11.59 46.77,-104.94 -73.17,-184.04 -242.09,-159.55l-76.76 11.27 82.03 92.66c87.63,99.11 129.2,244 101.4,353.87 -15.29,60.68 10.87,87.35 253.57,257.38 426.65,299.24 415.67,293.42 494.05,258.02 96.2,-43.47 141.19,-150.1 100.68,-238.46 -39.45,-85.84 -156.04,-93.91 -199.23,-13.72 -59.89,111.09 -161.2,51.43 -108.2,-63.72 65.5,-142.7 241.2,-166.5 360.04,-48.52 115.02,114.3 113.12,266.86 -5.1,400.49 -47.28,53.45 -103.53,97.38 -124.77,97.38 -30.97,0 -38.77,63.47 -38.77,313.36l0 313.53 97.72 73.96c261.3,197.82 402.89,457.29 423.51,775.68 14.07,217.56 10.36,215.27 168.64,99.01l0 0.77 0.24 0.22zm-1473.52 42.35c-8.07,-24.15 -88.02,-34.4 -270.44,-34.4 -182.54,0 -262.31,10.26 -270.5,34.4 -8.74,26.06 57.27,34.52 270.5,34.52 213.3,0 279.12,-8.47 270.44,-34.52zm-1248.28 -294.71c49.57,-59.27 90.13,-114.8 90.13,-123.36 0,-8.47 -110.99,-15.7 -246.74,-15.7 -193.69,0 -250.05,8.85 -262.6,41.35 -12.61,32.61 7.83,41.35 96.36,41.35 151.96,0 129.71,65.88 -26.04,77.32 -78.38,5.71 -115.82,21.29 -115.82,48.18 0,30.71 42.37,39.55 187.25,39.22 183.71,-1.01 189.03,-2.56 277.5,-108.35l-0.05 0zm625.75 88.24c6.62,-11.37 20.34,-67.12 30.6,-124.04l18.82 -103.27 -192.06 0c-132.61,0 -202.26,12.28 -224.89,39.34 -26.95,32.22 -19.83,40.96 39.05,48.29 115.81,14.28 94.29,63.21 -31.76,72.28 -63.59,4.53 -130.71,26.33 -149.03,48.18 -28.57,34.24 3.81,39.79 232.11,39.79 145.9,0 270.55,-9.25 277.11,-20.62l0.04 0.04zm567 -13.72c-7.84,-23.42 -76.88,-34.52 -214.93,-34.52 -138.15,0 -207.19,11.15 -215.03,34.52 -8.63,25.66 46.16,34.35 215.03,34.35 168.93,0 223.61,-8.69 214.93,-34.35zm646.27 -5.44c-18.39,-21.9 -85.33,-43.64 -149.08,-48.18 -126.01,-9.08 -147.42,-58.05 -31.6,-72.28 58.77,-7.33 65.83,-16.07 39.04,-48.29 -22.75,-27.07 -92.44,-39.34 -224.95,-39.34l-192 0 18.71 103.27c10.36,56.92 24.15,112.67 30.6,124.04 6.55,11.27 131.38,20.63 277.28,20.63 228.31,0 260.64,-5.55 232.01,-39.79l-0.01 -0.05zm581.28 0.12c0,-26.95 -37.31,-42.47 -115.68,-48.29 -155.71,-11.38 -178,-77.21 -26.17,-77.21 88.47,0 108.97,-8.74 96.42,-41.35 -12.49,-32.49 -69.02,-41.35 -262.71,-41.35 -135.64,0 -246.63,7.12 -246.63,15.69 0,8.47 40.56,64.09 90.15,123.38 88.4,105.78 93.67,107.85 277.33,108.36 144.88,0 187.24,-8.58 187.24,-39.22l0.05 -0.01zm-1276.08 -166.91c0,-32.09 -36.91,-41.35 -166.4,-41.35 -129.48,0 -166.45,9.25 -166.45,41.35 0,32.16 37.03,41.35 166.45,41.35 129.49,0 166.4,-9.24 166.4,-41.35zm-1220.53 -290.11c0,-129.2 -3.65,-136.65 -54.34,-109.69 -53.73,28.57 -195.32,195.42 -195.32,230.32 0,9.86 56.26,18.1 124.94,18.1l124.77 0 0 -138.73 -0.05 0zm194.18 -222.59c0,-213.3 -9.86,-324.4 -27.68,-313.42 -16.07,9.75 -27.84,156.88 -27.84,347.48 0,213.3 9.86,324.4 27.84,313.42 15.92,-9.75 27.68,-156.88 27.68,-347.54l0 0.06zm110.99 3.25c0,-220.36 -10.63,-358.01 -27.68,-358.01 -17.03,0 -27.77,137.65 -27.77,358.01 0,220.23 10.76,358.01 27.77,358.01 17.09,0 27.68,-137.83 27.68,-358.01zm693.52 -71.83l0 -429.96 -76.37 18.82c-119.12,29.37 -287.98,131.62 -346.14,209.6 -68.53,92.16 -103.21,244.83 -103.94,459.14l-0.67 172.24 527.05 0 0 -429.85 0.06 0zm-192.41 60.18c-43.09,-51.6 -15.8,-98.61 57.26,-98.61 41.47,0 53.46,15.41 46.91,59.85 -11.15,74.78 -59.17,92.66 -104.22,38.77l0.05 0zm829.83 197.43c-0.9,-214.31 -35.53,-366.98 -104.04,-459.14 -58.04,-77.98 -226.91,-180.29 -346.14,-209.6l-76.25 -18.82 0 859.79 527.04 0 -0.61 -172.23 0 0zm-424.74 -176.76c-40.57,-40.34 -17.21,-119.33 35.41,-119.33 70.75,0 98.09,47.4 56.14,97.59 -36.64,43.87 -62.97,50.03 -91.54,21.74zm647.28 -9.08c0,-220.36 -10.59,-358.01 -27.68,-358.01 -17.04,0 -27.68,137.65 -27.68,358.01 0,220.36 10.58,358.01 27.68,358.01 17.08,0 27.68,-137.65 27.68,-358.01zm84.15 -313.03c-19.71,-19.55 -28.68,74.86 -28.68,302.95 0,182.25 9.36,340.69 20.85,352.07 11.37,11.48 24.25,-124.94 28.68,-302.95 4.66,-196.7 -3.41,-334.87 -20.9,-352.07l0.05 0zm415.17 653c0,-34.9 -141.46,-201.76 -195.31,-230.44 -50.55,-26.78 -54.34,-19.33 -54.34,109.87l0 138.73 124.88 0c68.63,0 124.77,-8.07 124.77,-18.09l0 -0.06zm-1941.78 -601.61c0,-20.85 -12.5,-45.6 -27.79,-54.96 -15.8,-9.75 -27.68,14.06 -27.68,54.96 0,41.12 11.88,64.87 27.68,55.13 15.29,-9.35 27.79,-34.11 27.79,-55.13zm1331.59 -5.44c0,-55.35 -8.07,-66.38 -31.48,-43.25 -17.32,17.21 -23.87,50.71 -14.79,74.45 25.38,65.61 46.28,51.6 46.28,-31.21l0 0.01zm-1470.27 -273.19c0,-110.38 -5.94,-120.62 -69.41,-120.62 -64.49,0 -69.42,9.35 -69.42,133.9 0,127.91 3.2,133.24 69.42,120.64 61.4,-11.65 69.41,-26.95 69.41,-133.91zm1692.13 17.04c0,-128.53 -4.53,-137.67 -69.24,-137.67 -63.59,0 -69.42,10.15 -69.42,122.03 0,104.55 8.84,123.65 62.46,133.91 34.3,6.55 65.5,13.61 69.31,15.62 3.82,2.13 6.96,-58.15 6.96,-133.9l-0.06 0zm-1234.44 -31.72c99.11,-44.88 190.27,-62.86 319.07,-62.86 128.69,0 219.96,17.98 318.96,62.86 76.37,34.62 198,70.03 270.55,78.61l131.72 15.8 0 -98.21c0,-95.97 -3.64,-99.38 -159.5,-143.99 -191.18,-54.74 -317.96,-126 -457.63,-257.27l-104.04 -97.72 -104.04 97.72c-139.67,131.21 -266.46,202.53 -457.73,257.27 -155.77,44.66 -159.57,48.08 -159.57,143.99l0 98.21 131.84 -15.8c72.44,-8.58 194.18,-43.98 270.44,-78.61l-0.06 0zm-222.77 -24.81c-26.39,-42.35 9.75,-69.64 45.38,-34.29 19.89,19.72 20.34,35.12 1.41,46.77 -15.52,9.59 -36.53,3.92 -46.77,-12.55l-0.01 0.06zm1029.95 5.71c-9.59,-15.41 -3.92,-36.25 12.65,-46.4 42.59,-26.16 70.15,9.75 34.52,45.05 -19.94,19.71 -35.36,20.22 -47.17,1.51l0 -0.11 0 -0.05zm-857.22 -76.99c-25.94,-25.65 5.43,-64.99 51.7,-64.99 21.96,0 39.95,18.6 39.95,41.35 0,41.46 -58.49,56.65 -91.65,23.64zm646.49 -23.64c0,-28.35 18.21,-41.86 48.52,-36.08 58.5,11.14 54.74,60.06 -5.43,72.44 -25.21,5.2 -43.09,-9.97 -43.09,-36.37zm-457.8 -68.91c-23.14,-37.32 8.23,-82.59 57.14,-82.59 21.96,0 39.95,24.77 39.95,55.14 0,56.92 -66.84,75.97 -97.09,27.45l0 0zm263.61 -27.45c0,-41.57 14.5,-56.36 48.52,-49.92 26.67,5.17 48.57,27.58 48.57,49.92 0,22.23 -21.9,44.64 -48.57,49.81 -34.01,6.55 -48.52,-8.35 -48.52,-49.81zm-504.08 -123.15c71.34,-36.65 164.83,-95.41 208.08,-130.71 76.14,-62.09 76.99,-65.5 26.79,-110.49 -49.14,-44.26 -64.71,-37.54 -314.31,134.52 -144.49,99.67 -268.87,187.64 -276.49,195.42 -37.92,39.45 243.1,-30.7 355.88,-88.74l0.05 0zm1195.28 84.93c-6.44,-5.76 -129.81,-91.99 -274.19,-191.67 -249.65,-172.05 -265.24,-178.71 -314.43,-134.52 -50.03,45.05 -49.3,48.4 26.84,110.49 89.59,72.95 267.47,169.54 369.89,200.46 73.23,22.23 211.49,33.1 191.89,15.18l0 0.06zm-2273.42 -154.57c64.49,0 71.95,27.68 21.74,80.51 -28.07,29.47 -26.67,34.01 6.95,23.87 78.73,-23.87 61.97,-109.31 -42.35,-215.3 -87.62,-89.14 -101.24,-119.34 -91.49,-202.14 15.3,-130.83 -48.29,-81.81 -89.01,68.63 -24.66,90.77 -19.94,127.46 30.09,237.77 54.84,120.46 61.18,125.67 83.52,68.52 14.01,-36.03 47.79,-61.96 80.51,-61.96l0.05 0.1zm2974.76 77.15c-49.19,-48.8 -40.73,-77.15 23.02,-77.15 32.84,0 66.52,25.94 80.69,61.96 22.25,57.14 28.68,51.94 83.42,-68.52 50.21,-110.38 54.84,-147.02 30.25,-237.77 -41.73,-153.63 -102.19,-196.43 -89.64,-63.59 8.07,86.34 -5.15,115.42 -89.59,196.38 -116.99,111.88 -133.51,221.7 -33.55,221.7 17.21,0 15.29,-13.27 -4.53,-33l-0.07 0zm-1420.28 -466.47c48.9,57.26 55.35,58.89 54.63,13.67 -1.12,-64.38 -63.21,-147.51 -110.15,-147.51 -46.9,0 -108.97,83.14 -110.09,147.51 -0.72,45.22 5.71,43.59 54.58,-13.67l55.51 -65.11 55.53 65.11zm-101.63 -213.02c55.24,-45.38 107.68,-11.99 189.21,120.34l50.81 82.7 0.11 -101.13c0.11,-76.37 -20.84,-121.97 -85.17,-185.95 -47.06,-46.56 -95.97,-84.71 -108.86,-84.71 -12.89,0 -61.96,38.16 -108.86,84.71 -64.49,63.98 -85.33,109.58 -85.33,185.95l0.1 101.13 50.93 -82.7c27.95,-45.38 71.55,-99.61 96.98,-120.34l0.07 0zm-1729.28 -829.7c0,-30.6 -18.43,-55.14 -41.57,-55.14 -46.77,0 -48.57,5.04 -24.81,66.62 23.75,61.58 66.38,54.12 66.38,-11.48zm3617.22 11.49c23.82,-61.53 21.91,-66.62 -24.76,-66.62 -23.14,0 -41.57,24.54 -41.57,55.13 0,65.61 42.58,73.07 66.33,11.49z"/>
  </g>
 </g>
</svg>
